HIERARCHY
ROOT Hips
{
	OFFSET -0.001795 -0.223333 0.028219
	CHANNELS 6 Xposition Yposition Zposition Zrotation Yrotation Xrotation 
	JOINT LeftUpLeg
	{
		OFFSET 0.069520 -0.091406 -0.006815
		CHANNELS 3 Zrotation Yrotation Xrotation
		JOINT LeftLeg
		{
			OFFSET 0.034277 -0.375199 -0.004496
			CHANNELS 3 Zrotation Yrotation Xrotation
			JOINT LeftFoot
			{
				OFFSET -0.013596 -0.397961 -0.043693
				CHANNELS 3 Zrotation Yrotation Xrotation
				JOINT LeftToe
				{
					OFFSET 0.026358 -0.055791 0.119288
					CHANNELS 3 Zrotation Yrotation Xrotation
					End Site
					{
						OFFSET 0.000000 0.000000 0.000000
					}
				}
			}
		}
	}
	JOINT RightUpLeg
	{
		OFFSET -0.067670 -0.090522 -0.004320
		CHANNELS 3 Zrotation Yrotation Xrotation
		JOINT RightLeg
		{
			OFFSET -0.038290 -0.382569 -0.008850
			CHANNELS 3 Zrotation Yrotation Xrotation
			JOINT RightFoot
			{
				OFFSET 0.015774 -0.398415 -0.042312
				CHANNELS 3 Zrotation Yrotation Xrotation
				JOINT RightToe
				{
					OFFSET -0.025372 -0.048144 0.123348
					CHANNELS 3 Zrotation Yrotation Xrotation
					End Site
					{
						OFFSET 0.000000 0.000000 0.000000
					}
				}
			}
		}
	}
	JOINT Spine
	{
		OFFSET -0.002533 0.108963 -0.026696
		CHANNELS 3 Zrotation Yrotation Xrotation
		JOINT Spine1
		{
			OFFSET 0.005487 0.135180 0.001092
			CHANNELS 3 Zrotation Yrotation Xrotation
			JOINT Spine2
			{
				OFFSET 0.001457 0.052922 0.025425
				CHANNELS 3 Zrotation Yrotation Xrotation
				JOINT Neck
				{
					OFFSET -0.002778 0.213870 -0.042857
					CHANNELS 3 Zrotation Yrotation Xrotation
					JOINT Head
					{
						OFFSET 0.005152 0.064970 0.051349
						CHANNELS 3 Zrotation Yrotation Xrotation
						End Site
						{
							OFFSET 0.000000 0.000000 0.000000
						}
					}
				}
				JOINT LeftShoulder
				{
					OFFSET 0.078845 0.121749 -0.034090
					CHANNELS 3 Zrotation Yrotation Xrotation
					JOINT LeftArm
					{
						OFFSET 0.090977 0.030469 -0.008868
						CHANNELS 3 Zrotation Yrotation Xrotation
						JOINT LeftForeArm
						{
							OFFSET 0.259612 -0.012772 -0.027456
							CHANNELS 3 Zrotation Yrotation Xrotation
							JOINT LeftHand
							{
								OFFSET 0.249234 0.008986 -0.001171
								CHANNELS 3 Zrotation Yrotation Xrotation
								End Site
								{
									OFFSET 0.000000 0.000000 0.000000
								}
							}
						}
					}
				}
				JOINT RightShoulder
				{
					OFFSET -0.081759 0.118833 -0.038615
					CHANNELS 3 Zrotation Yrotation Xrotation
					JOINT RightArm
					{
						OFFSET -0.096012 0.032551 -0.009143
						CHANNELS 3 Zrotation Yrotation Xrotation
						JOINT RightForeArm
						{
							OFFSET -0.253742 -0.013329 -0.021401
							CHANNELS 3 Zrotation Yrotation Xrotation
							JOINT RightHand
							{
								OFFSET -0.255298 0.007772 -0.005559
								CHANNELS 3 Zrotation Yrotation Xrotation
								End Site
								{
									OFFSET 0.000000 0.000000 0.000000
								}
							}
						}
					}
				}
			}
		}
	}
}
MOTION
Frames: 13
Frame Time: 0.050000
0.058519 0.935715 0.027948 -0.693819 -9.666723 9.836548 6.906673 -0.367579 -11.237782 -2.455947 0.474299 15.484830 6.082193 12.993727 0.541661 0.000000 0.000000 0.000000 -3.979254 2.297425 -24.613641 -0.717682 1.991790 25.914110 -1.071385 -3.328090 0.835692 0.000000 0.000000 0.000000 6.398608 -0.161134 -0.761010 -1.982008 0.798188 -8.084919 -7.125403 12.656291 8.714591 11.400404 -1.509227 -34.819671 0.000000 0.000000 0.000000 -2.038323 -3.345887 0.731572 -53.168593 -31.388599 6.718405 159.012315 -53.817343 -136.095947 0.000000 0.000000 0.000000 1.245573 0.315473 0.177497 52.863542 49.177955 19.483959 -127.740883 51.833950 -76.166411 0.000000 0.000000 0.000000 
0.058541 0.944857 0.031879 -1.573145 -16.451134 11.096347 6.261249 -0.245255 -7.545739 -2.281921 0.458179 9.291158 9.023357 18.580676 5.434002 0.000000 0.000000 0.000000 -2.376902 2.970707 -25.444179 -2.734464 2.639731 22.788011 1.447997 1.615684 2.597457 0.000000 0.000000 0.000000 7.233225 0.057091 -2.742084 -1.484570 0.523200 -6.362730 -7.004706 6.682269 7.317187 11.415845 -2.873274 -33.030029 0.000000 0.000000 0.000000 2.015762 -4.642104 1.642990 -47.196843 -36.414283 9.017911 137.534859 -48.590237 -89.490060 0.000000 0.000000 0.000000 0.115773 1.912070 0.642851 54.317645 52.701874 20.246112 -135.201454 52.936452 -93.353083 0.000000 0.000000 0.000000 
0.058880 0.954162 0.031370 -2.692623 -22.758192 11.953511 6.111673 -0.107309 -5.348123 -2.442391 0.531773 6.651269 11.387050 21.789966 10.153874 0.000000 0.000000 0.000000 -0.379187 3.533446 -25.457453 -3.375808 2.584905 19.610286 3.859635 4.470739 5.700236 0.000000 0.000000 0.000000 6.736649 0.073698 -2.656102 0.309820 -0.259409 -6.429549 -6.696493 0.635680 5.943846 11.122025 -4.075962 -30.657204 0.000000 0.000000 0.000000 7.725984 -8.497976 2.350297 -37.942276 -38.715392 8.950438 111.374609 -40.615476 -45.268638 0.000000 0.000000 0.000000 -1.804105 3.285127 1.310598 57.818854 56.059859 21.232717 -139.634206 53.641847 -105.906431 0.000000 0.000000 0.000000 
0.059706 0.959353 0.026977 -3.049258 -26.123595 12.424829 6.501543 -0.010133 -5.478953 -3.408571 0.838456 6.925119 11.089686 20.803085 11.095021 0.000000 0.000000 0.000000 0.197284 3.886274 -26.060308 -3.602209 2.544170 18.443511 5.036945 6.670450 6.129066 0.000000 0.000000 0.000000 5.855443 -0.055783 -1.399087 1.489502 -0.743766 -7.137620 -5.745121 -5.069929 5.792255 9.946849 -4.561481 -29.027905 0.000000 0.000000 0.000000 12.979178 -11.992909 2.166078 -29.333120 -41.245151 8.507062 88.335261 -29.610775 -17.281036 0.000000 0.000000 0.000000 -3.999183 4.766122 2.303399 60.725825 60.025127 21.922732 -141.864082 51.715237 -110.492126 0.000000 0.000000 0.000000 
0.060431 0.961587 0.022072 -2.708685 -27.903338 12.527342 6.043405 -0.033799 -6.243044 -3.962230 1.084045 7.916692 11.291541 20.852628 11.705479 0.000000 0.000000 0.000000 0.675437 4.303776 -27.226334 -4.648546 2.885558 18.627492 6.432981 9.321566 6.815028 0.000000 0.000000 0.000000 4.977370 -0.169267 -0.119286 2.489858 -1.114899 -7.343587 -5.945700 -6.542073 5.384137 8.850209 -4.447684 -27.997714 0.000000 0.000000 0.000000 18.058708 -13.527272 1.409237 -26.361716 -43.308640 9.071950 78.738330 -19.693291 -6.198526 0.000000 0.000000 0.000000 -4.334076 4.741862 2.438693 61.886580 61.672801 22.493546 -143.772774 51.539730 -114.113797 0.000000 0.000000 0.000000 
0.060230 0.959359 0.018839 -1.909941 -28.322476 12.345827 6.436441 0.018656 -7.371797 -5.453667 1.636573 9.494774 11.880684 22.038505 10.951062 0.000000 0.000000 0.000000 0.552880 4.382626 -27.529653 -4.889777 2.864263 18.155323 7.031890 9.840543 7.649733 0.000000 0.000000 0.000000 4.615047 -0.221098 0.618571 2.453942 -1.103723 -6.883546 -5.904176 -5.581128 5.336540 7.600902 -3.860941 -28.012046 0.000000 0.000000 0.000000 17.752069 -11.412904 0.978556 -29.028903 -43.494441 10.040093 83.376567 -19.439054 -6.553182 0.000000 0.000000 0.000000 -4.590652 5.079228 2.576940 60.520387 63.322795 22.989664 -141.466897 49.480935 -107.279761 0.000000 0.000000 0.000000 
0.059912 0.955613 0.016939 -0.965696 -25.830678 11.780813 6.415216 -0.040476 -8.157384 -5.222090 1.626044 11.083760 10.166206 19.462011 9.557372 0.000000 0.000000 0.000000 -0.801528 4.190512 -28.183213 -4.045336 2.908372 19.926692 4.843931 7.124558 5.380736 0.000000 0.000000 0.000000 5.080091 -0.270942 1.013825 1.484248 -0.737288 -7.397577 -5.946363 -3.202810 6.565372 8.589142 -3.815585 -29.431046 0.000000 0.000000 0.000000 13.812919 -9.231857 1.358544 -33.883712 -43.541460 10.906522 97.405609 -23.794080 -14.982493 0.000000 0.000000 0.000000 -4.065863 5.856435 2.565618 57.683108 63.723690 23.129122 -137.813371 47.883476 -97.865265 0.000000 0.000000 0.000000 
0.061187 0.951216 0.015052 0.181395 -21.556977 10.868917 6.094662 -0.172451 -9.263585 -4.994469 1.568875 13.205173 8.986572 18.033142 6.991610 0.000000 0.000000 0.000000 -1.935244 3.809821 -28.405019 -3.961576 3.084745 21.944411 3.416072 5.137721 4.039736 0.000000 0.000000 0.000000 5.823618 -0.407493 2.262511 0.854556 -0.458884 -7.908756 -6.398478 0.774879 7.444642 7.993865 -2.778671 -30.605902 0.000000 0.000000 0.000000 9.713153 -5.949832 1.413409 -41.242233 -43.768690 12.261181 111.981768 -29.033130 -30.748242 0.000000 0.000000 0.000000 -4.831262 3.573224 1.889431 54.055294 62.887347 22.861624 -133.350747 45.539089 -85.081847 0.000000 0.000000 0.000000 
0.064499 0.948811 0.012617 0.878657 -17.503600 10.535443 6.284070 -0.249763 -10.518398 -4.930114 1.442626 14.211999 7.947471 16.470829 5.024896 0.000000 0.000000 0.000000 -3.617840 3.252027 -28.174257 -3.167088 2.874839 23.255667 1.508207 1.206402 3.271752 0.000000 0.000000 0.000000 6.564792 -0.544458 3.298674 0.262910 -0.179172 -8.822999 -6.293698 4.162082 8.378232 8.026063 -2.007945 -31.957248 0.000000 0.000000 0.000000 6.561993 -4.470876 1.484433 -44.455768 -41.934879 11.329299 122.312831 -32.848309 -46.827368 0.000000 0.000000 0.000000 -5.385430 1.875354 1.239939 54.677769 61.396193 24.294805 -130.556104 44.347807 -76.828551 0.000000 0.000000 0.000000 
0.069048 0.948620 0.009666 1.495522 -13.814941 10.253354 6.171828 -0.355451 -11.311039 -4.734096 1.227284 14.420296 6.098980 13.051356 3.785057 0.000000 0.000000 0.000000 -4.410359 2.765616 -27.272235 -3.186832 2.668248 23.119358 0.688509 -0.670399 3.309128 0.000000 0.000000 0.000000 6.717695 -0.541166 3.037954 -0.207950 0.055271 -8.185389 -5.980568 5.516024 8.069694 7.706676 -1.375009 -32.471785 0.000000 0.000000 0.000000 4.528985 -2.923670 1.167588 -47.124515 -39.724880 10.537236 126.922159 -36.246455 -58.550442 0.000000 0.000000 0.000000 -6.436597 1.035937 0.907274 57.859322 59.026259 25.984805 -126.924812 44.836066 -71.343305 0.000000 0.000000 0.000000 
0.073418 0.950427 0.007144 1.872497 -10.966051 10.745169 5.890037 -0.484981 -12.983932 -4.198797 0.999186 15.400723 4.918059 10.810465 3.704937 0.000000 0.000000 0.000000 -5.651990 2.304350 -26.433908 -2.868158 2.277947 21.972245 0.493887 -1.103176 3.465809 0.000000 0.000000 0.000000 6.658024 -0.493949 2.321152 0.259690 -0.074713 -7.906049 -6.703728 5.929166 7.936886 7.738280 -1.172283 -32.027795 0.000000 0.000000 0.000000 4.501838 -2.299619 1.066263 -48.836846 -39.608831 10.637262 128.625378 -40.182792 -67.687481 0.000000 0.000000 0.000000 -7.040903 -0.846981 0.273080 62.277705 56.135487 27.433551 -128.913399 45.926154 -73.835646 0.000000 0.000000 0.000000 
0.076465 0.950892 0.005374 1.626143 -9.130724 11.225330 6.304714 -0.515631 -14.331690 -3.956275 0.887470 16.390819 4.336573 9.748352 3.798122 0.000000 0.000000 0.000000 -5.835764 2.089523 -25.587535 -2.343311 1.917704 20.859470 0.231291 -1.417026 3.091437 0.000000 0.000000 0.000000 6.383817 -0.386147 1.141367 0.419166 -0.100828 -8.111111 -6.400822 5.065850 8.369737 7.616125 -1.217616 -31.266688 0.000000 0.000000 0.000000 4.977846 -2.902014 1.279795 -49.406731 -38.686262 10.330043 128.346725 -42.295228 -70.439013 0.000000 0.000000 0.000000 -6.898244 -1.154809 0.162434 64.795393 53.339240 26.862561 -131.906383 47.834749 -80.004879 0.000000 0.000000 0.000000 
0.078203 0.949706 0.004282 1.071093 -9.460248 11.662969 6.454160 -0.500489 -15.234736 -3.196766 0.734564 17.555980 4.150198 9.291206 3.217110 0.000000 0.000000 0.000000 -5.278932 2.184751 -25.438066 -2.344193 1.853577 20.068327 0.335944 -1.341407 3.350694 0.000000 0.000000 0.000000 6.020690 -0.344126 0.803839 0.460460 -0.115863 -8.437512 -6.337101 4.820430 8.602149 7.867541 -1.423945 -31.042414 0.000000 0.000000 0.000000 4.837789 -2.440021 1.110362 -49.762536 -38.098978 10.220670 128.277997 -45.192123 -74.049974 0.000000 0.000000 0.000000 -6.296282 -1.777006 -0.032692 66.592644 51.929083 26.594120 -136.214954 49.294572 -87.861956 0.000000 0.000000 0.000000 
